<svg xmlns="http://www.w3.org/2000/svg" viewBox="0 0 24 24" width="36" height="36" fill="none" stroke="#ffffff" stroke-width="1" stroke-linecap="round" stroke-linejoin="round">&lt;!--!  Atomicons Free 1.00 by @atisalab License - https://atomicons.com/license/ (Icons: CC BY 4.0) Copyright 2021 Atomicons --&gt;<circle cx="10" cy="6" r="4"></circle><path d="M15.67,22a2,2,0,0,0,1.92-2.56A7.8,7.8,0,0,0,10,14a7.8,7.8,0,0,0-7.59,5.44A2,2,0,0,0,4.34,22Z"></path><path d="M16.83,3.17a4.13,4.13,0,0,1,.86,1.27,4.08,4.08,0,0,1,0,3.12,4.13,4.13,0,0,1-.86,1.27"></path><path d="M21.8,19.86A11.12,11.12,0,0,0,18,13.5"></path></svg>